<?xml version="1.0" standalone="no"?>
<!DOCTYPE svg PUBLIC "-//W3C//DTD SVG 20010904//EN"
 "http://www.w3.org/TR/2001/REC-SVG-20010904/DTD/svg10.dtd">
<svg version="1.0" xmlns="http://www.w3.org/2000/svg"
 width="200.000000pt" height="200.000000pt" viewBox="0 0 200.000000 200.000000"
 preserveAspectRatio="xMidYMid meet">

<g transform="translate(0.000000,200.000000) scale(0.100000,-0.100000)"
fill="#000000" stroke="none">
<path d="M349 1651 c-51 -51 -42 -61 61 -61 103 0 112 10 61 61 -40 39 -82 39
-122 0z"/>
<path d="M1529 1651 c-51 -51 -42 -61 61 -61 75 0 90 3 90 16 0 28 -56 74 -90
74 -22 0 -41 -9 -61 -29z"/>
<path d="M70 1520 c-25 -25 -26 -51 -2 -79 17 -21 21 -21 347 -19 l330 3 13
29 c13 25 12 31 -5 55 l-20 26 -321 3 c-311 2 -322 2 -342 -18z"/>
<path d="M1250 1520 c-25 -25 -26 -51 -2 -79 17 -21 21 -21 347 -19 l330 3 13
29 c13 25 12 31 -5 55 l-20 26 -321 3 c-311 2 -322 2 -342 -18z"/>
<path d="M855 1360 c-22 -4 -85 -26 -140 -49 -55 -22 -126 -44 -158 -49 l-57
-9 0 54 0 53 -90 0 -90 0 0 -52 c0 -70 22 -169 43 -202 23 -35 70 -36 93 -1
16 24 21 25 116 25 66 0 108 -5 126 -14 66 -35 124 -125 138 -216 12 -82 7
-80 164 -80 157 0 152 -2 164 80 14 91 72 181 138 216 18 9 60 14 126 14 95 0
100 -1 116 -25 23 -35 70 -34 93 1 21 33 43 132 43 202 l0 52 -90 0 -90 0 0
-53 0 -54 -57 9 c-31 5 -109 30 -173 55 -113 45 -117 46 -245 49 -71 2 -148
-1 -170 -6z"/>
<path d="M601 989 c-155 -103 -226 -268 -219 -505 3 -135 15 -164 68 -164 48
0 54 19 52 158 -3 141 10 212 55 295 29 52 125 147 149 147 8 0 19 12 25 27 8
22 6 32 -9 52 -28 38 -52 36 -121 -10z"/>
<path d="M1300 1010 c-36 -36 -26 -65 33 -103 133 -86 198 -246 183 -455 -7
-105 3 -132 51 -132 42 0 60 31 68 115 23 244 -65 456 -233 564 -57 36 -75 38
-102 11z"/>
<path d="M862 720 c-29 -24 -24 -32 35 -67 66 -38 145 -37 209 3 26 16 49 34
50 39 2 6 -8 18 -21 28 -23 17 -25 16 -57 -3 -43 -26 -113 -26 -156 0 -39 24
-32 24 -60 0z"/>
<path d="M751 626 l-23 -24 51 -40 c129 -103 313 -102 442 0 l51 40 -25 25
-24 25 -47 -36 c-47 -36 -127 -66 -176 -66 -48 0 -129 30 -175 65 -25 19 -47
35 -48 35 -2 0 -14 -11 -26 -24z"/>
<path d="M644 537 l-27 -23 53 -46 c193 -169 472 -169 658 -1 l54 48 -25 24
-26 23 -48 -40 c-103 -87 -231 -125 -346 -104 -76 14 -169 59 -220 107 -21 19
-40 35 -42 35 -2 0 -16 -10 -31 -23z"/>
</g>
</svg>
