<?xml version="1.0" standalone="no"?>
<!DOCTYPE svg PUBLIC "-//W3C//DTD SVG 20010904//EN"
 "http://www.w3.org/TR/2001/REC-SVG-20010904/DTD/svg10.dtd">
<svg version="1.0" xmlns="http://www.w3.org/2000/svg"
 width="200.000000pt" height="200.000000pt" viewBox="0 0 200.000000 200.000000"
 preserveAspectRatio="xMidYMid meet">

<g transform="translate(0.000000,200.000000) scale(0.100000,-0.100000)"
fill="#000000" stroke="none">
<path d="M895 1790 c-93 -15 -192 -48 -280 -93 -62 -32 -103 -64 -181 -142
-91 -90 -106 -110 -152 -205 -75 -155 -96 -245 -89 -395 3 -84 11 -141 27
-190 82 -259 281 -451 547 -527 101 -29 273 -30 378 -3 209 53 390 194 484
375 47 89 56 122 12 43 -109 -197 -287 -333 -495 -379 -153 -33 -341 -8 -482
64 -69 35 -180 129 -229 194 -108 142 -150 281 -142 463 8 186 65 313 197 445
193 193 440 252 700 165 l81 -27 58 53 c33 30 59 58 60 62 1 12 -98 54 -182
77 -85 24 -228 33 -312 20z"/>
<path d="M1441 1566 c-17 -41 -31 -78 -31 -81 0 -4 24 -33 53 -65 91 -98 157
-259 157 -382 l0 -58 100 0 100 0 0 48 c-1 116 -58 283 -141 407 -45 67 -178
205 -198 205 -5 0 -23 -33 -40 -74z"/>
<path d="M1330 1557 c-30 -29 -146 -137 -256 -240 -111 -103 -214 -205 -229
-227 -37 -54 -43 -106 -16 -159 28 -53 72 -81 132 -81 66 0 106 30 151 115 42
79 282 634 276 640 -2 2 -28 -20 -58 -48z"/>
</g>
</svg>
